<svg xmlns="http://www.w3.org/2000/svg" viewBox="0 0 1024 512">
  <rect width="1024" height="512" fill="#FFFFFF"/>
  <g id="icon" transform="rotate(-45 190 256)">
    <path fill="#E8C84A" fill-rule="evenodd" d="M 190,126 A 70,70 0 0 1 190,266 A 70,70 0 0 1 190,126 Z M 190,160 A 36,36 0 0 0 190,232 A 36,36 0 0 0 190,160 Z"/>
    <rect x="175" y="260" width="32" height="118" rx="4" fill="#E8C84A"/>
    <rect x="207" y="296" width="34" height="26" rx="3" fill="#E8C84A"/>
    <rect x="207" y="336" width="44" height="26" rx="3" fill="#E8C84A"/>
    <path fill="none" stroke="#8B6914" stroke-width="5" d="M 190,160 A 36,36 0 0 0 190,232 A 36,36 0 0 0 190,160 Z"/>
    <path fill="none" stroke="#8B6914" stroke-width="4" d="M 190,126 A 70,70 0 0 1 190,266 A 70,70 0 0 1 190,126 Z"/>
    <rect x="175" y="368" width="32" height="10" rx="3" fill="#8B6914"/>
    <rect x="207" y="317" width="34" height="5" rx="2" fill="#8B6914"/>
    <rect x="207" y="357" width="44" height="5" rx="2" fill="#8B6914"/>
  </g>
  <g id="wordmark">
    <text x="390" y="218" font-family="'Arial Black', 'Helvetica Neue', Arial, sans-serif" font-size="80" font-weight="900" fill="#0D1117" letter-spacing="8">IDEA</text>
    <text x="390" y="308" font-family="'Arial Black', 'Helvetica Neue', Arial, sans-serif" font-size="80" font-weight="900" fill="#C9A030" letter-spacing="8">TO PLAN</text>
  </g>
  <g id="tagline">
    <text x="395" y="352" font-family="Arial, Helvetica, sans-serif" font-size="16" fill="#8B6914" letter-spacing="4">Your Skills. Your Business.</text>
  </g>
</svg>
